# xmcd
#
# Track frame offsets: 
#        150
#        14220
#        38126
#        64638
#        82998
#        98611
#        120265
#        136090
#        148880
#        168842
#        182967
#        199455
#        215730
#        228542
#        242094
#        267071
#        282311
#
# Disc length: 3927 seconds
#
# Revision: 1
# Processed by: cddbd v1.5.1PL2 Copyright (c) Steve Scherf et al.
# Submitted via: ExactAudioCopy v0.90b4
#
DISCID=f70f5511
DTITLE=Lou Ann Barton - Sugar Coated Love
DYEAR=1900
DGENRE=
TTITLE0=Someday
TTITLE1=He's Gotta Use His Head To Turn Me On
TTITLE2=I Feel Like Breaking Up Somebody's Home
TTITLE3=Diving Duck
TTITLE4=Young And Dumb
TTITLE5=Rock N' Roll 800
TTITLE6=Not Even Me
TTITLE7=Te Ni Nee Ni Nu
TTITLE8=Shake A Hand
TTITLE9=I'll Change That Too
TTITLE10=Scratch My Back
TTITLE11=Natural Born Lover
TTITLE12=You Can Have My Husband
TTITLE13=Oh, Yeah
TTITLE14=I Wonder Why
TTITLE15=Sugar Coated Love
TTITLE16=Te Ni Nee Ni Nu
EXTD=
EXTT0=
EXTT1=
EXTT2=
EXTT3=
EXTT4=
EXTT5=
EXTT6=
EXTT7=
EXTT8=
EXTT9=
EXTT10=
EXTT11=
EXTT12=
EXTT13=
EXTT14=
EXTT15=
EXTT16=
PLAYORDER=
